<?xml version="1.0" standalone="no"?>
<!DOCTYPE svg PUBLIC "-//W3C//DTD SVG 20010904//EN"
 "http://www.w3.org/TR/2001/REC-SVG-20010904/DTD/svg10.dtd">
<svg version="1.0" xmlns="http://www.w3.org/2000/svg"
 width="300.000000pt" height="76.000000pt" viewBox="0 0 300.000000 76.000000"
 preserveAspectRatio="xMidYMid meet">

<g transform="translate(0.000000,76.000000) scale(0.100000,-0.100000)"
fill="#000000" stroke="none">
<path d="M209 738 c0 -2 -10 -39 -22 -83 l-22 -80 -57 -3 c-54 -3 -58 -5 -58
-27 0 -23 4 -25 51 -25 l51 0 -7 -32 c-10 -48 -11 -48 -71 -48 -40 0 -54 -4
-54 -14 0 -8 -3 -21 -6 -30 -5 -13 2 -16 45 -16 59 0 60 -2 36 -90 -21 -80
-20 -90 13 -90 27 0 30 4 41 53 28 128 28 127 71 127 22 0 40 -3 40 -7 0 -5
-9 -42 -20 -83 -25 -95 -25 -90 10 -90 26 0 30 5 40 43 6 23 17 62 23 87 l13
45 57 3 c56 3 57 4 57 32 0 29 -1 30 -51 30 l-51 0 7 33 c10 47 11 47 69 47
49 0 54 2 58 25 5 24 3 25 -42 25 -26 0 -49 2 -52 6 -3 3 3 37 13 77 24 91 24
87 -10 87 -26 0 -30 -5 -40 -47 -33 -131 -28 -123 -71 -123 -22 0 -40 3 -40 8
0 4 9 41 20 82 11 41 20 76 20 78 0 1 -13 2 -30 2 -16 0 -30 -1 -31 -2z m80
-240 c-1 -48 -13 -61 -55 -61 -42 0 -44 6 -24 59 8 19 17 24 45 24 30 0 35 -3
34 -22z"/>
<path d="M866 730 c-38 -12 -75 -47 -92 -88 -21 -47 -114 -457 -114 -499 0
-42 25 -87 58 -105 40 -21 136 -16 169 8 47 35 62 74 114 296 66 280 65 342
-1 378 -28 15 -101 21 -134 10z m82 -82 c20 -20 13 -76 -38 -298 -51 -219 -64
-250 -108 -250 -20 0 -52 29 -52 47 0 14 80 370 101 445 5 20 16 44 25 53 18
18 55 20 72 3z"/>
<path d="M1196 730 c-69 -21 -109 -99 -110 -214 -1 -67 2 -76 43 -145 47 -80
52 -113 31 -203 -14 -55 -43 -83 -72 -67 -22 12 -23 53 -4 127 l14 52 -42 0
-43 0 -17 -79 c-9 -43 -14 -90 -11 -104 24 -94 179 -102 235 -12 27 44 53 170
45 215 -4 19 -28 74 -53 121 l-46 87 13 63 c15 74 25 89 58 89 33 0 38 -21 19
-95 -9 -35 -16 -67 -16 -70 0 -3 18 -5 40 -5 37 0 40 2 50 38 19 64 23 137 10
161 -12 24 -67 52 -97 50 -10 0 -31 -5 -47 -9z"/>
<path d="M2833 733 c-67 -13 -119 -122 -111 -237 3 -50 12 -74 47 -134 41 -68
43 -76 37 -125 -13 -111 -39 -157 -80 -141 -25 9 -28 38 -11 109 8 36 15 68
15 71 0 2 -18 4 -40 4 -37 0 -40 -2 -50 -37 -21 -73 -24 -150 -6 -177 37 -57
146 -58 202 -2 37 37 53 83 61 182 6 71 5 73 -41 157 -50 92 -56 133 -32 212
10 35 15 40 41 40 28 0 30 -2 29 -40 0 -22 -4 -59 -9 -83 l-8 -43 39 3 39 3
19 78 c18 73 18 81 3 112 -21 44 -74 62 -144 48z"/>
<path d="M540 726 c0 -6 -150 -658 -156 -678 -5 -16 5 -18 114 -18 l120 0 11
31 c6 18 11 36 11 40 0 5 -31 9 -68 9 -38 0 -71 2 -73 5 -3 2 25 136 63 297
37 161 67 299 68 306 0 8 -15 12 -45 12 -25 0 -45 -2 -45 -4z"/>
<path d="M1381 693 c-15 -54 -16 -53 40 -53 43 0 50 -2 45 -17 -3 -10 -33
-139 -66 -288 -34 -148 -64 -278 -66 -287 -5 -15 2 -18 43 -18 l49 0 69 305
69 305 49 0 c45 0 49 2 63 35 7 19 14 39 14 45 0 6 -53 10 -150 10 l-149 0
-10 -37z"/>
<path d="M1705 718 c-5 -15 -165 -679 -165 -685 0 -2 19 -3 43 -1 l42 3 59
257 c33 142 61 256 63 254 3 -3 -28 -353 -42 -468 l-6 -48 38 0 38 0 95 259
c52 143 96 256 97 253 1 -4 -24 -119 -56 -257 l-58 -250 40 -3 c21 -2 41 -2
43 0 3 4 154 677 154 690 0 4 -26 8 -58 8 l-59 0 -91 -242 c-101 -271 -100
-271 -77 -3 8 94 15 187 15 208 l0 37 -55 0 c-36 0 -57 -5 -60 -12z"/>
<path d="M2111 708 c-26 -70 -27 -68 28 -68 28 0 51 -4 51 -9 0 -5 -29 -136
-65 -291 -36 -155 -65 -288 -65 -296 0 -22 87 -19 94 4 2 9 30 130 61 267 83
365 67 325 125 325 55 0 55 1 65 53 l7 37 -146 0 c-143 0 -147 -1 -155 -22z"/>
<path d="M2354 383 l-80 -348 39 -3 c22 -2 41 -1 44 2 3 3 27 111 53 241 26
130 50 238 54 242 3 3 6 -105 6 -240 l0 -247 50 0 c28 0 50 2 50 5 0 3 36 158
80 344 44 187 80 342 80 345 0 3 -18 6 -40 6 -47 0 -35 31 -100 -275 l-47
-220 -6 94 c-4 52 -7 163 -7 248 l0 153 -48 0 -48 0 -80 -347z"/>
</g>
</svg>
